<?xml version="1.0" encoding="UTF-8"?>
<svg width="26px" height="31px" viewBox="0 0 26 31" version="1.1" xmlns="http://www.w3.org/2000/svg" xmlns:xlink="http://www.w3.org/1999/xlink">
    <!-- Generator: Sketch 52.2 (67145) - http://www.bohemiancoding.com/sketch -->
    <title>password</title>
    <desc>Created with Sketch.</desc>
    <g id="WEB-/-UI-Design-/-Merchants" stroke="none" stroke-width="1" fill="none" fill-rule="evenodd">
        <g id="Sign-in" transform="translate(-490.000000, -531.000000)">
            <g id="password" transform="translate(490.000000, 533.333333)">
                <g id="group">
                    <path d="M0,16.4745952 C0,13.1650941 2.68892184,10.4822134 5.9970337,10.4822134 L18.9078522,10.4822134 C22.2199225,10.4822134 24.9048859,13.1655463 24.9048859,16.4745952 L24.9048859,20.5214523 C24.9048859,23.8309533 22.2159641,26.513834 18.9078522,26.513834 L5.9970337,26.513834 C2.68496344,26.513834 0,23.8305012 0,20.5214523 L0,16.4745952 Z" id="shape" fill="#FFFFFF"></path>
                    <path d="M4.98097719,10.4822134 L4.98097719,7.32213439 C4.98097719,3.28470949 8.33267674,0 12.452443,0 C16.5722092,0 19.9239088,3.28470949 19.9239088,7.32213439 L19.9239088,10.4822134" id="shape" stroke="#FFFFFF" stroke-width="3"></path>
                    <path d="M12.452443,16.7905138 L12.452443,20.2173708" id="line" stroke="#FFFFFF" stroke-width="3" stroke-linecap="square"></path>
                </g>
            </g>
        </g>
    </g>
</svg>