<?xml version="1.0" encoding="UTF-8"?>
<svg width="25px" height="26px" viewBox="0 0 25 26" version="1.1" xmlns="http://www.w3.org/2000/svg" xmlns:xlink="http://www.w3.org/1999/xlink">
    <!-- Generator: Sketch 52.2 (67145) - http://www.bohemiancoding.com/sketch -->
    <title>Group</title>
    <desc>Created with Sketch.</desc>
    <defs>
        <linearGradient x1="-6.91395941%" y1="210.416603%" x2="91.4063566%" y2="-92.7970855%" id="linearGradient-1">
            <stop stop-color="#FFF200" offset="0%"></stop>
            <stop stop-color="#FFD000" offset="100%"></stop>
        </linearGradient>
    </defs>
    <g id="WEB-/-UI-Design-/-Merchants" stroke="none" stroke-width="1" fill="none" fill-rule="evenodd">
        <g id="Registration-(name)" transform="translate(-1097.000000, -54.000000)">
            <g id="Group" transform="translate(1097.000000, 54.000000)">
                <path d="M21.9444444,0.0583233669 L3.05555556,0.0583233669 C1.36111111,0.0583233669 0,1.33610114 0,2.91943448 L0,17.2805456 C0,18.8638789 1.36111111,20.1416567 3.05555556,20.1416567 L5.05555556,20.1416567 L5.05555556,24.3916567 C5.05555556,24.6416567 5.22222222,24.8916567 5.47222222,25.0027678 C5.58333333,25.0583234 5.66666667,25.0583234 5.77777778,25.0583234 C5.94444444,25.0583234 6.11111111,25.0027678 6.25,24.9194345 L12.5555556,20.1416567 L21.9444444,20.1416567 C23.6388889,20.1416567 25,18.8638789 25,17.2805456 L25,2.91943448 C25,1.33610114 23.6388889,0.0583233669 21.9444444,0.0583233669 Z" id="Path" fill="url(#linearGradient-1)"></path>
                <path d="M5,6.05832337 L10.9599692,6.05832337 L10.9599692,7.72451452 L6.97228638,7.72451452 L6.97228638,9.21952166 L10.5719784,9.21952166 L10.5719784,10.8743005 L6.97228638,10.8857128 L6.97228638,12.3921322 L11.0677444,12.3921322 L11.0677444,14.0583234 L5,14.0583234 L5,6.05832337 Z M17.1678214,6.05832337 L19,6.05832337 L19,14.0583234 L17.2755966,14.0583234 L13.8483449,9.276583 L13.8483449,14.0583234 L12.0053888,14.0583234 L12.0053888,6.05832337 L13.7405697,6.05832337 L17.1785989,10.8743005 L17.1678214,6.05832337 Z" id="EN" fill="#1C1C1C"></path>
            </g>
        </g>
    </g>
</svg>