<svg xmlns="http://www.w3.org/2000/svg" xmlns:xlink="http://www.w3.org/1999/xlink" width="190.15" height="61.23" viewBox="0 0 190.15 61.23"><defs><style>.a{fill:url(#a);}.b{fill:url(#b);}.c,.d,.e{isolation:isolate;}.d{font-size:52.78px;font-family:Cochin, Cochin;}.d,.e,.f{fill:#fff;}.e,.f{font-size:9.8px;font-family:Avenir-Light, Avenir;letter-spacing:0.54em;}</style><linearGradient id="a" x1="43.64" y1="106.72" x2="43.64" y2="105.72" gradientTransform="matrix(22.97, 1.2, 0.99, -18.97, -1080.46, 2006.16)" gradientUnits="userSpaceOnUse"><stop offset="0" stop-color="#f8f8f8"/><stop offset="1" stop-color="#ededed"/></linearGradient><linearGradient id="b" x1="44.67" y1="108.2" x2="44.67" y2="107.26" gradientTransform="matrix(54, 0, 0, -54, -2385, 5854)" gradientUnits="userSpaceOnUse"><stop offset="0" stop-color="#fff200"/><stop offset="1" stop-color="#d2ad08"/></linearGradient></defs><title>logo</title><polygon class="a" points="27.33 33.73 38.7 49.33 27.34 52.76 15.67 49.32 27.33 33.73"/><path class="b" d="M27,63A27,27,0,1,1,54,36,27,27,0,0,1,27,63Zm0-11A16,16,0,1,0,11,36,16,16,0,0,0,27,52Z" transform="translate(0 -3.25)"/><g class="c"><text class="d" transform="translate(64.26 43.75)">BTW</text></g><g class="c"><text class="e" transform="translate(66.59 58.78)">LOREM IPSU</text><text class="f" transform="translate(176.11 58.78)"> </text><text class="e" transform="translate(176.11 58.78)">M</text></g></svg>