<?xml version="1.0" encoding="utf-8"?>
<!-- Generator: Adobe Illustrator 22.1.0, SVG Export Plug-In . SVG Version: 6.00 Build 0)  -->
<svg version="1.1" id="Слой_1" xmlns="http://www.w3.org/2000/svg" xmlns:xlink="http://www.w3.org/1999/xlink" x="0px" y="0px"
	 width="54.9px" height="56.9px" viewBox="0 0 54.9 56.9" style="enable-background:new 0 0 54.9 56.9;" xml:space="preserve">
<style type="text/css">
	.st0{fill:url(#SVGID_1_);}
	.st1{fill:url(#SVGID_2_);}
</style>
<title>logo</title>
<linearGradient id="SVGID_1_" gradientUnits="userSpaceOnUse" x1="-55.3708" y1="-28.3927" x2="-55.3708" y2="-27.3923" gradientTransform="matrix(22.97 1.2 -0.99 18.97 1272.1558 634.7901)">
	<stop  offset="0" style="stop-color:#F8F8F8"/>
	<stop  offset="1" style="stop-color:#EDEDED"/>
</linearGradient>
<polygon class="st0" points="27.7,29.4 39.1,45 27.8,48.4 16.1,45 "/>
<linearGradient id="SVGID_2_" gradientUnits="userSpaceOnUse" x1="-56.9907" y1="-30.2" x2="-56.9907" y2="-29.26" gradientTransform="matrix(54 0 0 54 3104.9167 1634.4166)">
	<stop  offset="0" style="stop-color:#FFF200"/>
	<stop  offset="1" style="stop-color:#D2AD08"/>
</linearGradient>
<path class="st1" d="M27.4,55.4c-14.9,0-27-12.1-27-27s12.1-27,27-27s27,12.1,27,27S42.3,55.4,27.4,55.4z M27.4,44.4
	c8.8,0,16-7.2,16-16s-7.2-16-16-16s-16,7.2-16,16S18.6,44.4,27.4,44.4z"/>
<g>
	<text transform="matrix(1 0 0 1 64.6767 39.4167)" style="fill:#FFFFFF; font-family:'Cochin'; font-size:52.78px;">BTW</text>
</g>
<g>
	
		<text transform="matrix(1 0 0 1 67.0067 54.4467)" style="fill:#FFFFFF; font-family:'Avenir-Light'; font-size:9.8px; letter-spacing:5;">LOREM IPSU</text>
	
		<text transform="matrix(1 0 0 1 176.5267 54.4467)" style="fill:#FFFFFF; font-family:'Avenir-Light'; font-size:9.8px; letter-spacing:5;">M</text>
</g>
</svg>
