<?xml version="1.0" encoding="utf-8"?>
<!-- Generator: Adobe Illustrator 22.1.0, SVG Export Plug-In . SVG Version: 6.00 Build 0)  -->
<svg version="1.1" id="Capa_1" xmlns="http://www.w3.org/2000/svg" xmlns:xlink="http://www.w3.org/1999/xlink" x="0px" y="0px"
	 width="512px" height="512px" viewBox="0 0 512 512" style="enable-background:new 0 0 512 512;" xml:space="preserve">
<style type="text/css">
	.st0{fill:#7F7F7F;}
</style>
<g>
	<g id="search">
		<path class="st0" d="M365.7,321.8h-23.4l-8.8-8.8c29.3-32.2,46.8-76.1,46.8-122.9c0-105.3-84.8-190.2-190.2-190.2
			C84.7-0.1,0,84.8,0,190.2c0,105.4,84.8,190.1,190.2,190.1c46.8,0,90.7-17.6,122.9-46.8l8.8,8.8v23.4L468.1,512l43.9-43.9
			L365.7,321.8z M190.2,321.8c-73.1,0-131.7-58.5-131.7-131.7S117,58.5,190.2,58.5S321.8,117,321.8,190.2
			C321.8,263.4,263.3,321.8,190.2,321.8z"/>
	</g>
</g>
</svg>
