<?xml version="1.0" encoding="utf-8"?>
<!-- Generator: Adobe Illustrator 22.1.0, SVG Export Plug-In . SVG Version: 6.00 Build 0)  -->
<svg version="1.1" id="Слой_1" xmlns="http://www.w3.org/2000/svg" xmlns:xlink="http://www.w3.org/1999/xlink" x="0px" y="0px"
	 width="15px" height="15px" viewBox="0 0 15 15" style="enable-background:new 0 0 15 15;" xml:space="preserve">
<style type="text/css">
	.st0{filter:url(#Adobe_OpacityMaskFilter);}
	.st1{fill:#FFFFFF;}
	.st2{mask:url(#mask-2_1_);}
</style>
<title>sidebar copy 5</title>
<desc>Created with Sketch.</desc>
<g id="WEB-_x2F_-UI-Design-_x2F_-Merchants">
	<g id="My-profile-_x28_Account-seting_x29_" transform="translate(-256.000000, -308.000000)">
		<g id="sidebar-copy-5" transform="translate(256.000000, 308.000000)">
			<g id="Shape">
				<path id="path-1_1_" d="M7.8,14.3c-0.2,0.1-0.4,0.1-0.6,0c-0.2-0.1-0.5-0.2-0.8-0.5c-0.6-0.4-1.2-0.8-1.8-1.3
					c-1.7-1.5-2.7-3.1-2.7-5v-5c0-0.3,0.2-0.5,0.5-0.6l5-1.2c0.1,0,0.2,0,0.3,0l5,1.2c0.3,0.1,0.5,0.3,0.5,0.6v5c0,1.9-1,3.5-2.7,5
					c-0.6,0.5-1.2,0.9-1.8,1.3C8.2,14.1,8,14.2,7.8,14.3z M8,12.8c0.6-0.3,1.1-0.8,1.6-1.2c1.4-1.3,2.3-2.6,2.3-4.1V3L7.5,1.9L3.1,3
					v4.5c0,1.4,0.8,2.8,2.3,4.1C5.9,12,6.5,12.4,7,12.8C7.2,12.9,7.4,13,7.5,13C7.6,13,7.8,12.9,8,12.8z"/>
			</g>
			<defs>
				<filter id="Adobe_OpacityMaskFilter" filterUnits="userSpaceOnUse" x="0" y="0" width="15" height="15">
					<feColorMatrix  type="matrix" values="1 0 0 0 0  0 1 0 0 0  0 0 1 0 0  0 0 0 1 0"/>
				</filter>
			</defs>
			<mask maskUnits="userSpaceOnUse" x="0" y="0" width="15" height="15" id="mask-2_1_">
				<g class="st0">
					<path id="path-1_2_" class="st1" d="M7.8,14.3c-0.2,0.1-0.4,0.1-0.6,0c-0.2-0.1-0.5-0.2-0.8-0.5c-0.6-0.4-1.2-0.8-1.8-1.3
						c-1.7-1.5-2.7-3.1-2.7-5v-5c0-0.3,0.2-0.5,0.5-0.6l5-1.2c0.1,0,0.2,0,0.3,0l5,1.2c0.3,0.1,0.5,0.3,0.5,0.6v5c0,1.9-1,3.5-2.7,5
						c-0.6,0.5-1.2,0.9-1.8,1.3C8.2,14.1,8,14.2,7.8,14.3z M8,12.8c0.6-0.3,1.1-0.8,1.6-1.2c1.4-1.3,2.3-2.6,2.3-4.1V3L7.5,1.9
						L3.1,3v4.5c0,1.4,0.8,2.8,2.3,4.1C5.9,12,6.5,12.4,7,12.8C7.2,12.9,7.4,13,7.5,13C7.6,13,7.8,12.9,8,12.8z"/>
				</g>
			</mask>
			<g id="COLOR_x2F_-black" class="st2">
				<rect id="Rectangle" width="15" height="15"/>
			</g>
		</g>
	</g>
</g>
</svg>
