<?xml version="1.0" encoding="UTF-8"?>
<svg width="23px" height="24px" viewBox="0 0 23 24" version="1.1" xmlns="http://www.w3.org/2000/svg" xmlns:xlink="http://www.w3.org/1999/xlink">
    <!-- Generator: Sketch 52.4 (67378) - http://www.bohemiancoding.com/sketch -->
    <title>Icon/star Copy 14</title>
    <desc>Created with Sketch.</desc>
    <g id="Page-1" stroke="none" stroke-width="1" fill="none" fill-rule="evenodd" fill-opacity="0.5">
        <g id="My-orders--(View)-Copy" transform="translate(-418.000000, -206.000000)" fill="#8E8E93" fill-rule="nonzero">
            <g id="Icon/star-Copy-14" transform="translate(418.613861, 206.000000)">
                <path d="M20.7455187,8.78558349 L14.4274216,8.78558349 C14.0495947,8.78757544 13.7129718,8.55692473 13.592202,8.21329915 L11.6460203,2.52919612 C11.5238283,2.18649125 11.1881825,1.95624011 10.8108006,1.95624011 C10.4334187,1.95624011 10.0977729,2.18649125 9.97558095,2.52919612 L8.02939925,8.21329915 C7.90862944,8.55692473 7.57200655,8.78757544 7.19417958,8.78558349 L0.876082514,8.78558349 C0.500687087,8.77749828 0.163545415,9.00496137 0.0443651147,9.34672746 C-0.0748151858,9.68849355 0.0517380951,10.0649219 0.35656789,10.2753639 L5.48377759,13.8110992 C5.78671494,14.0175931 5.91461415,14.389136 5.79948263,14.7282118 L3.8453084,20.4376303 C3.76132422,20.6923141 3.81011761,20.9702261 3.97642446,21.1844266 C4.1427313,21.3986271 4.40624286,21.5229587 4.68452433,21.5185266 C4.87009633,21.5176964 5.05060388,21.4603479 5.20004268,21.3547428 L10.291286,17.844323 C10.6019976,17.6310731 11.0196037,17.6310731 11.3303152,17.844323 L16.4215585,21.3547428 C16.5709973,21.4603479 16.7515049,21.5176964 16.9370769,21.5185266 C17.2153584,21.5229587 17.4788699,21.3986271 17.6451768,21.1844266 C17.8114836,20.9702261 17.860277,20.6923141 17.7762928,20.4376303 L15.8221186,14.7282118 C15.7069871,14.389136 15.8348863,14.0175931 16.1378236,13.8110992 L21.2650333,10.2753639 C21.5698631,10.0649219 21.6964164,9.68849355 21.5772361,9.34672746 C21.4580558,9.00496137 21.1209141,8.77749828 20.7455187,8.78558349 Z" id="Star"></path>
            </g>
        </g>
    </g>
</svg>