<?xml version="1.0" encoding="utf-8"?>
<!-- Generator: Adobe Illustrator 22.1.0, SVG Export Plug-In . SVG Version: 6.00 Build 0)  -->
<svg version="1.1" id="Слой_1" xmlns="http://www.w3.org/2000/svg" xmlns:xlink="http://www.w3.org/1999/xlink" x="0px" y="0px"
	 width="15px" height="15px" viewBox="0 0 15 15" style="enable-background:new 0 0 15 15;" xml:space="preserve">
<style type="text/css">
	.st0{filter:url(#Adobe_OpacityMaskFilter);}
	.st1{fill:#FFFFFF;}
	.st2{mask:url(#mask-2_1_);}
</style>
<title>sidebar copy 3</title>
<desc>Created with Sketch.</desc>
<g id="WEB-_x2F_-UI-Design-_x2F_-Merchants">
	<g id="My-profile-_x28_Account-seting_x29_" transform="translate(-256.000000, -270.000000)">
		<g id="sidebar-copy-3" transform="translate(256.000000, 270.000000)">
			<g id="Combined-Shape">
				<path id="path-1_1_" d="M10.9,5.7C10.9,5.7,10.9,5.7,10.9,5.7L8.1,7.1v6.1l4.7-2.3c0.2-0.1,0.3-0.3,0.3-0.6V4.6
					C13.1,4.6,10.9,5.7,10.9,5.7z M5.8,2l4.8,2.4l1.7-0.9L7.8,1.3c-0.2-0.1-0.4-0.1-0.6,0L5.8,2z M4.4,2.7L2.7,3.6L7.5,6l1.7-0.9
					L4.4,2.7z M4,1.5c0,0,0.1,0,0.1-0.1l2.5-1.3c0.5-0.3,1.1-0.3,1.7,0l5,2.5c0.6,0.3,1,1,1,1.7v6c0,0.7-0.4,1.4-1,1.7l-5,2.5
					c-0.5,0.3-1.1,0.3-1.7,0l-5-2.5c-0.6-0.3-1-1-1-1.7l0-6c0-0.7,0.4-1.4,1-1.7L4,1.5z M6.9,13.2V7.1l-5-2.5l0,5.7
					c0,0.2,0.1,0.5,0.3,0.6L6.9,13.2z"/>
			</g>
			<defs>
				<filter id="Adobe_OpacityMaskFilter" filterUnits="userSpaceOnUse" x="0" y="0" width="15" height="15">
					<feColorMatrix  type="matrix" values="1 0 0 0 0  0 1 0 0 0  0 0 1 0 0  0 0 0 1 0"/>
				</filter>
			</defs>
			<mask maskUnits="userSpaceOnUse" x="0" y="0" width="15" height="15" id="mask-2_1_">
				<g class="st0">
					<path id="path-1_2_" class="st1" d="M10.9,5.7C10.9,5.7,10.9,5.7,10.9,5.7L8.1,7.1v6.1l4.7-2.3c0.2-0.1,0.3-0.3,0.3-0.6V4.6
						C13.1,4.6,10.9,5.7,10.9,5.7z M5.8,2l4.8,2.4l1.7-0.9L7.8,1.3c-0.2-0.1-0.4-0.1-0.6,0L5.8,2z M4.4,2.7L2.7,3.6L7.5,6l1.7-0.9
						L4.4,2.7z M4,1.5c0,0,0.1,0,0.1-0.1l2.5-1.3c0.5-0.3,1.1-0.3,1.7,0l5,2.5c0.6,0.3,1,1,1,1.7v6c0,0.7-0.4,1.4-1,1.7l-5,2.5
						c-0.5,0.3-1.1,0.3-1.7,0l-5-2.5c-0.6-0.3-1-1-1-1.7l0-6c0-0.7,0.4-1.4,1-1.7L4,1.5z M6.9,13.2V7.1l-5-2.5l0,5.7
						c0,0.2,0.1,0.5,0.3,0.6L6.9,13.2z"/>
				</g>
			</mask>
			<g id="COLOR_x2F_-black" class="st2">
				<rect id="Rectangle" width="15" height="15"/>
			</g>
		</g>
	</g>
</g>
</svg>
