<?xml version="1.0" encoding="utf-8"?>
<!-- Generator: Adobe Illustrator 22.1.0, SVG Export Plug-In . SVG Version: 6.00 Build 0)  -->
<svg version="1.1" id="Слой_1" xmlns="http://www.w3.org/2000/svg" xmlns:xlink="http://www.w3.org/1999/xlink" x="0px" y="0px"
	 width="15px" height="15px" viewBox="0 0 15 15" style="enable-background:new 0 0 15 15;" xml:space="preserve">
<style type="text/css">
	.st0{filter:url(#Adobe_OpacityMaskFilter);}
	.st1{fill:#FFFFFF;}
	.st2{mask:url(#mask-2_1_);}
</style>
<title>sidebar</title>
<desc>Created with Sketch.</desc>
<g id="WEB-_x2F_-UI-Design-_x2F_-Merchants">
	<g id="My-profile-_x28_Account-seting_x29_" transform="translate(-936.000000, -26.000000)">
		<g id="sidebar" transform="translate(936.000000, 26.000000)">
			<g id="Combined-Shape">
				<path id="path-1_1_" d="M13.1,13.1c0,0.3-0.3,0.6-0.6,0.6s-0.6-0.3-0.6-0.6v-1.2c0-1-0.8-1.9-1.9-1.9H5c-1,0-1.9,0.8-1.9,1.9
					v1.2c0,0.3-0.3,0.6-0.6,0.6s-0.6-0.3-0.6-0.6v-1.2c0-1.7,1.4-3.1,3.1-3.1h5c1.7,0,3.1,1.4,3.1,3.1V13.1z M7.5,7.5
					c-1.7,0-3.1-1.4-3.1-3.1s1.4-3.1,3.1-3.1s3.1,1.4,3.1,3.1S9.2,7.5,7.5,7.5z M7.5,6.2c1,0,1.9-0.8,1.9-1.9S8.5,2.5,7.5,2.5
					S5.6,3.3,5.6,4.4S6.5,6.2,7.5,6.2z"/>
			</g>
			<defs>
				<filter id="Adobe_OpacityMaskFilter" filterUnits="userSpaceOnUse" x="0" y="0" width="15" height="15">
					<feColorMatrix  type="matrix" values="1 0 0 0 0  0 1 0 0 0  0 0 1 0 0  0 0 0 1 0"/>
				</filter>
			</defs>
			<mask maskUnits="userSpaceOnUse" x="0" y="0" width="15" height="15" id="mask-2_1_">
				<g class="st0">
					<path id="path-1_2_" class="st1" d="M13.1,13.1c0,0.3-0.3,0.6-0.6,0.6s-0.6-0.3-0.6-0.6v-1.2c0-1-0.8-1.9-1.9-1.9H5
						c-1,0-1.9,0.8-1.9,1.9v1.2c0,0.3-0.3,0.6-0.6,0.6s-0.6-0.3-0.6-0.6v-1.2c0-1.7,1.4-3.1,3.1-3.1h5c1.7,0,3.1,1.4,3.1,3.1V13.1z
						 M7.5,7.5c-1.7,0-3.1-1.4-3.1-3.1s1.4-3.1,3.1-3.1s3.1,1.4,3.1,3.1S9.2,7.5,7.5,7.5z M7.5,6.2c1,0,1.9-0.8,1.9-1.9
						S8.5,2.5,7.5,2.5S5.6,3.3,5.6,4.4S6.5,6.2,7.5,6.2z"/>
				</g>
			</mask>
			<g id="COLOR_x2F_-black" class="st2">
				<rect id="Rectangle" width="15" height="15"/>
			</g>
		</g>
	</g>
</g>
</svg>
