<?xml version="1.0" encoding="utf-8"?>
<!-- Generator: Adobe Illustrator 22.1.0, SVG Export Plug-In . SVG Version: 6.00 Build 0)  -->
<svg version="1.1" id="Слой_1" xmlns="http://www.w3.org/2000/svg" xmlns:xlink="http://www.w3.org/1999/xlink" x="0px" y="0px"
	 width="28px" height="28px" viewBox="0 0 28 28" style="enable-background:new 0 0 28 28;" xml:space="preserve">
<style type="text/css">
	.st0{fill:#FFEC00;}
	.st1{filter:url(#Adobe_OpacityMaskFilter);}
	.st2{fill:#FFFFFF;}
	.st3{mask:url(#mask-2_1_);}
</style>
<title>sidebar</title>
<desc>Created with Sketch.</desc>
<circle class="st0" cx="14" cy="14" r="14"/>
<g id="WEB-_x2F_-UI-Design-_x2F_-Merchants">
	<g id="Edit" transform="translate(-935.000000, -25.000000)">
		<g id="Group-4" transform="translate(928.000000, 18.000000)">
			<g id="Group-10">
				<g id="sidebar" transform="translate(7.619048, 7.619048)">
					<g id="Combined-Shape">
						<path id="path-1_1_" d="M19,18.5c0,0.3-0.3,0.6-0.6,0.6c-0.3,0-0.6-0.3-0.6-0.6v-1.2c0-1-0.8-1.9-1.9-1.9h-5
							c-1,0-1.9,0.8-1.9,1.9v1.2c0,0.3-0.3,0.6-0.6,0.6s-0.6-0.3-0.6-0.6v-1.2c0-1.7,1.4-3.1,3.1-3.1h5c1.7,0,3.1,1.4,3.1,3.1V18.5z
							 M13.4,12.9c-1.7,0-3.1-1.4-3.1-3.1s1.4-3.1,3.1-3.1s3.1,1.4,3.1,3.1S15.1,12.9,13.4,12.9z M13.4,11.6c1,0,1.9-0.8,1.9-1.9
							s-0.8-1.9-1.9-1.9s-1.9,0.8-1.9,1.9S12.3,11.6,13.4,11.6z"/>
					</g>
					<defs>
						<filter id="Adobe_OpacityMaskFilter" filterUnits="userSpaceOnUse" x="5.9" y="5.4" width="15" height="15">
							<feColorMatrix  type="matrix" values="1 0 0 0 0  0 1 0 0 0  0 0 1 0 0  0 0 0 1 0"/>
						</filter>
					</defs>
					<mask maskUnits="userSpaceOnUse" x="5.9" y="5.4" width="15" height="15" id="mask-2_1_">
						<g class="st1">
							<path id="path-1_2_" class="st2" d="M19,18.5c0,0.3-0.3,0.6-0.6,0.6c-0.3,0-0.6-0.3-0.6-0.6v-1.2c0-1-0.8-1.9-1.9-1.9h-5
								c-1,0-1.9,0.8-1.9,1.9v1.2c0,0.3-0.3,0.6-0.6,0.6s-0.6-0.3-0.6-0.6v-1.2c0-1.7,1.4-3.1,3.1-3.1h5c1.7,0,3.1,1.4,3.1,3.1V18.5
								z M13.4,12.9c-1.7,0-3.1-1.4-3.1-3.1s1.4-3.1,3.1-3.1s3.1,1.4,3.1,3.1S15.1,12.9,13.4,12.9z M13.4,11.6c1,0,1.9-0.8,1.9-1.9
								s-0.8-1.9-1.9-1.9s-1.9,0.8-1.9,1.9S12.3,11.6,13.4,11.6z"/>
						</g>
					</mask>
					<g id="COLOR_x2F_-black" class="st3">
						<rect id="Rectangle" x="5.9" y="5.4" width="15" height="15"/>
					</g>
				</g>
			</g>
		</g>
	</g>
</g>
</svg>
